<?xml version="1.0" encoding="UTF-8"?>
<svg width="16px" height="12px" viewBox="0 0 16 12" version="1.1" xmlns="http://www.w3.org/2000/svg" xmlns:xlink="http://www.w3.org/1999/xlink">
    <!-- Generator: sketchtool 57.1 (101010) - https://sketch.com -->
    <title>2421E11F-7446-4DFE-87EB-BFFFC4E0F0A9</title>
    <desc>Created with sketchtool.</desc>
    <g id="Permatrol" stroke="none" stroke-width="1" fill="none" fill-rule="evenodd">
        <g id="Responsive_1" transform="translate(-16.000000, -2368.000000)" fill="#22252D">
            <g id="Group-14" transform="translate(11.000000, 2278.000000)">
                <path d="M20,90 C20.5522847,90 21,90.4477153 21,91 L21,101 C21,101.552285 20.5522847,102 20,102 L6,102 C5.44771525,102 5,101.552285 5,101 L5,91 C5,90.4477153 5.44771525,90 6,90 L20,90 Z M19.0038342,93.1195876 L13.0126585,98.2049701 L7.02148278,93.1195876 L7.02148278,99.8768057 L19.0038342,99.8768057 L19.0038342,93.1195876 Z M18.0600615,91.9581814 L7.95251466,91.9581814 L13,96 L18.0600615,91.9581814 Z" id="correo"></path>
            </g>
        </g>
    </g>
</svg>