<?xml version="1.0" encoding="UTF-8"?>
<svg width="20px" height="20px" viewBox="0 0 20 20" version="1.1" xmlns="http://www.w3.org/2000/svg" xmlns:xlink="http://www.w3.org/1999/xlink">
    <!-- Generator: sketchtool 56.3 (101010) - https://sketch.com -->
    <title>B3696C30-20CD-4B56-A10F-A934256443C3</title>
    <desc>Created with sketchtool.</desc>
    <g id="Permatrol" stroke="none" stroke-width="1" fill="none" fill-rule="evenodd">
        <g id="Pagina_principal" transform="translate(-441.000000, -12.000000)" fill="#FFFFFF" fill-rule="nonzero">
            <g id="PRIMERA">
                <g id="global" transform="translate(441.000000, 12.000000)">
                    <path d="M18.9030655,5.45473848 C17.24482,2.22040592 13.8778023,0 10,0 C6.12092391,0 2.75348163,2.22125511 1.09566065,5.45792288 C1.08907946,5.47087293 1.08122451,5.48254924 1.0761294,5.4961362 C0.389563533,6.85079826 -2.84217094e-14,8.38039234 -2.84217094e-14,10 C-2.84217094e-14,11.6200323 0.389563533,13.1496264 1.0761294,14.5038638 C1.08122451,14.5174508 1.08907946,14.5291271 1.09566065,14.5420771 C2.75305707,17.7787449 6.12092391,20 10,20 C13.8778023,20 17.24482,17.7800187 18.9030655,14.5452615 C18.9104959,14.5308254 18.9192001,14.5178753 18.9247198,14.50259 C19.6108611,13.1483526 20,11.6191831 20,10 C20,8.3808169 19.6108611,6.85164739 18.9247198,5.49741 C18.9187755,5.48212467 18.9104959,5.46917457 18.9030655,5.45473848 Z M18.2368801,13.9130435 L14.415124,13.9130435 C14.6274202,12.8417968 14.7535241,11.6703465 14.7773013,10.4347826 L19.108356,10.4347826 C19.0495499,11.6752293 18.744268,12.8496518 18.2368801,13.9130435 Z M10,19.1304348 C8.62474522,19.1304348 7.39130435,17.3673149 6.69178837,14.7826087 L13.3082116,14.7826087 C12.6086957,17.3673149 11.3752548,19.1304348 10,19.1304348 Z M6.48395043,13.9130435 C6.25912875,12.8439198 6.12304685,11.6682235 6.09693446,10.4347826 L13.9034902,10.4347826 C13.8769532,11.6682235 13.7408712,12.8439198 13.5164742,13.9130435 L6.48395043,13.9130435 Z M0.891644022,10.4347826 L5.2226987,10.4347826 C5.24690049,11.6703465 5.37257984,12.8417968 5.58487603,13.9130435 L1.76311989,13.9130435 C1.25573201,12.8496518 0.950450054,11.6752293 0.891644022,10.4347826 Z M1.76311989,6.08695652 L5.58487603,6.08695652 C5.37257984,7.15820315 5.24647587,8.32965353 5.2226987,9.56521739 L0.891644022,9.56521739 C0.950450054,8.32477071 1.25573201,7.15034815 1.76311989,6.08695652 Z M10,0.869565217 C11.3752548,0.869565217 12.6086957,2.63268511 13.3082116,5.2173913 L6.69178837,5.2173913 C7.39130435,2.63268511 8.62474522,0.869565217 10,0.869565217 Z M13.5160496,6.08695652 C13.7408712,7.15565554 13.8769532,8.33177652 13.9030655,9.56521739 L6.09650984,9.56521739 C6.12304685,8.33177652 6.25912875,7.15565554 6.48352582,6.08695652 L13.5160496,6.08695652 Z M14.7773013,9.56521739 C14.7530995,8.32965353 14.6274202,7.15820315 14.415124,6.08695652 L18.2368801,6.08695652 C18.744268,7.15034815 19.0495499,8.32477071 19.108356,9.56521739 L14.7773013,9.56521739 Z M17.7626104,5.2173913 L14.2183254,5.2173913 C13.7782354,3.49227239 13.1035581,2.08517326 12.2768767,1.16869054 C14.5860224,1.76481826 16.5391474,3.23879076 17.7626104,5.2173913 L17.7626104,5.2173913 Z M7.7226987,1.16869054 C6.8964419,2.08517326 6.22176462,3.49227239 5.78125,5.2173913 L2.236965,5.2173913 C3.46085261,3.23879076 5.41397761,1.76481826 7.7226987,1.16869054 Z M2.23738962,14.7826087 L5.78125,14.7826087 C6.22134,16.5077276 6.89601734,17.9148267 7.7226987,18.8313095 C5.41397761,18.2351817 3.46085261,16.7607847 2.23738962,14.7826087 Z M12.2773013,18.8313095 C13.1035581,17.9148267 13.7782354,16.5077276 14.21875,14.7826087 L17.7626104,14.7826087 C16.5391474,16.7607847 14.5860224,18.2351817 12.2773013,18.8313095 L12.2773013,18.8313095 Z" id="Shape"></path>
                </g>
            </g>
        </g>
    </g>
</svg>