<?xml version="1.0" encoding="UTF-8"?>
<svg width="35px" height="35px" viewBox="0 0 35 35" version="1.1" xmlns="http://www.w3.org/2000/svg" xmlns:xlink="http://www.w3.org/1999/xlink">
    <!-- Generator: sketchtool 57 (101010) - https://sketch.com -->
    <title>63CB923A-B0FC-4198-94FD-694D8407E358</title>
    <desc>Created with sketchtool.</desc>
    <g id="Permatrol" stroke="none" stroke-width="1" fill="none" fill-rule="evenodd">
        <g id="Pagina_principal" transform="translate(-373.000000, -2007.000000)" fill="#EE3746" fill-rule="nonzero">
            <g id="TERCERO" transform="translate(0.000000, 1967.000000)">
                <g id="Group-8" transform="translate(355.000000, 25.000000)">
                    <g id="quality" transform="translate(18.000000, 15.000000)">
                        <path d="M32.9492188,19.6191406 C32.9492188,17.9229395 31.569248,16.5429688 29.8730469,16.5429688 L25.3043848,16.5429688 C25.8704004,15.0126074 26.2214258,13.1948633 26.4266406,11.8179004 C26.6339062,10.4278809 26.2270996,9.02083984 25.3105371,7.95744141 C24.396709,6.8971875 23.0697168,6.2890625 21.6699219,6.2890625 C21.1036328,6.2890625 20.6445312,6.74816406 20.6445312,7.31445312 C20.6445312,9.7915918 19.2209473,13.531123 17.5596094,14.364082 C15.6895703,15.3014941 12.0107422,16.3403516 11.277998,16.5429688 C10.8205371,16.5429688 1.46760742,16.5429688 1.02545898,16.5429688 C0.459169922,16.5429688 6.8359375e-05,17.0020703 6.8359375e-05,17.5683594 L6.8359375e-05,31.9238281 C6.8359375e-05,32.4901172 0.459101563,32.9492188 1.02539063,32.9492188 L4.1015625,32.9492188 L4.1015625,33.9746094 C4.1015625,34.5408984 4.56066406,35 5.12695312,35 L9.36523437,35 C10.6176465,35 11.6968359,34.2472949 12.1763086,33.1708398 L19.3704492,34.969375 C19.4517969,34.9896777 19.535332,35 19.6191406,35 L25.7714844,35 C27.4676855,35 28.8476562,33.6200293 28.8476562,31.9238281 C28.8476562,31.5237891 28.7708887,31.1413867 28.6313672,30.790498 C29.9362109,30.4343457 30.8984375,29.2385352 30.8984375,27.8222656 C30.8984375,27.4222266 30.8216699,27.0398242 30.6821484,26.6889355 C31.9869922,26.3327832 32.9492188,25.1369727 32.9492188,23.7207031 C32.9492188,22.9335449 32.6520605,22.214541 32.164043,21.6699219 C32.6520605,21.1253027 32.9492188,20.4062988 32.9492188,19.6191406 Z M4.10149414,30.8984375 L2.05071289,30.8984375 L2.05071289,18.59375 L4.10149414,18.59375 L4.10149414,30.8984375 Z M10.3905566,31.9238281 C10.3905566,32.4892285 9.93056641,32.9492188 9.36516602,32.9492188 L6.15227539,32.9492188 L6.15227539,18.59375 L10.3905566,18.59375 L10.3905566,31.9238281 Z M23.7207031,22.6953125 L29.8730469,22.6953125 C30.4384473,22.6953125 30.8984375,23.1553027 30.8984375,23.7207031 C30.8984375,24.2861035 30.4384473,24.7460938 29.8730469,24.7460938 C29.0999023,24.7460938 24.3526172,24.7460938 23.7207031,24.7460938 C23.1544141,24.7460938 22.6953125,25.2051953 22.6953125,25.7714844 C22.6953125,26.3377734 23.1544141,26.796875 23.7207031,26.796875 L27.8222656,26.796875 C28.387666,26.796875 28.8476562,27.2568652 28.8476562,27.8222656 C28.8476562,28.387666 28.387666,28.8476562 27.8222656,28.8476562 C27.3875684,28.8476562 24.1554004,28.8476562 23.7207031,28.8476562 C23.1544141,28.8476562 22.6953125,29.3067578 22.6953125,29.8730469 C22.6953125,30.4393359 23.1544141,30.8984375 23.7207031,30.8984375 L25.7714844,30.8984375 C26.3368848,30.8984375 26.796875,31.3584277 26.796875,31.9238281 C26.796875,32.4892285 26.3368848,32.9492188 25.7714844,32.9492188 L19.7454004,32.9492188 L12.4414062,31.1232715 L12.4414062,18.3460156 C13.8248633,17.9487793 16.7593262,17.0593555 18.4786328,16.1974121 C20.8336133,15.0167773 22.2756543,11.2824414 22.6167676,8.50739258 C23.0529687,8.66694336 23.4467187,8.93614258 23.7572754,9.29639648 C24.283916,9.90732422 24.5175684,10.7161523 24.3983496,11.5154785 C23.9126563,14.7730762 23.3033691,16.1102539 22.8035937,17.1097363 C22.6446582,17.4276074 22.6616113,17.8050879 22.8484375,18.107373 C23.0352637,18.4096582 23.3653027,18.59375 23.7207031,18.59375 L29.8730469,18.59375 C30.4384473,18.59375 30.8984375,19.0537402 30.8984375,19.6191406 C30.8984375,20.184541 30.4384473,20.6445312 29.8730469,20.6445312 L23.7207031,20.6445312 C23.1544141,20.6445312 22.6953125,21.1036328 22.6953125,21.6699219 C22.6953125,22.2362109 23.1544141,22.6953125 23.7207031,22.6953125 Z" id="Shape"></path>
                        <path d="M22.6953125,0 C22.1290234,0 21.6699219,0.459101563 21.6699219,1.02539062 L21.6699219,3.21289062 C21.6699219,3.77917969 22.1290234,4.23828125 22.6953125,4.23828125 C23.2616016,4.23828125 23.7207031,3.77917969 23.7207031,3.21289062 L23.7207031,1.02539062 C23.7207031,0.459101563 23.2616016,0 22.6953125,0 Z" id="Path"></path>
                        <path d="M16.8948145,5.19080078 L15.444707,3.74069336 C15.0443262,3.34024414 14.3950488,3.34024414 13.9945996,3.74069336 C13.5941504,4.14114258 13.5941504,4.79035156 13.9945996,5.19080078 L15.444707,6.6409082 C15.8450879,7.04135742 16.4944336,7.04135742 16.8948145,6.6409082 C17.2952637,6.24045898 17.2952637,5.59125 16.8948145,5.19080078 Z" id="Path"></path>
                        <path d="M13.4667285,11.4160156 L11.4159473,11.4160156 C10.8496582,11.4160156 10.3905566,11.8751172 10.3905566,12.4414062 C10.3905566,13.0076953 10.8496582,13.4667969 11.4159473,13.4667969 L13.4667285,13.4667969 C14.0330176,13.4667969 14.4921191,13.0076953 14.4921191,12.4414062 C14.4921191,11.8751172 14.0330176,11.4160156 13.4667285,11.4160156 Z" id="Path"></path>
                        <path d="M33.9746094,11.4160156 L31.9238281,11.4160156 C31.3575391,11.4160156 30.8984375,11.8751172 30.8984375,12.4414062 C30.8984375,13.0076953 31.3575391,13.4667969 31.9238281,13.4667969 L33.9746094,13.4667969 C34.5408984,13.4667969 35,13.0076953 35,12.4414062 C35,11.8751172 34.5408984,11.4160156 33.9746094,11.4160156 Z" id="Path"></path>
                        <path d="M31.3960254,3.74069336 C30.9956445,3.34024414 30.3463672,3.34024414 29.945918,3.74069336 L28.4958105,5.19080078 C28.0953613,5.59125 28.0953613,6.24045898 28.4958105,6.6409082 C28.8961914,7.04135742 29.5455371,7.04135742 29.945918,6.6409082 L31.3960254,5.19080078 C31.7964746,4.79035156 31.7964746,4.14114258 31.3960254,3.74069336 Z" id="Path"></path>
                    </g>
                </g>
            </g>
        </g>
    </g>
</svg>