<?xml version="1.0" encoding="UTF-8"?>
<svg width="30px" height="35px" viewBox="0 0 30 35" version="1.1" xmlns="http://www.w3.org/2000/svg" xmlns:xlink="http://www.w3.org/1999/xlink">
    <!-- Generator: sketchtool 57 (101010) - https://sketch.com -->
    <title>083F1899-2F59-4C86-BF10-EDDF27CB5F51</title>
    <desc>Created with sketchtool.</desc>
    <g id="Permatrol" stroke="none" stroke-width="1" fill="none" fill-rule="evenodd">
        <g id="Pagina_principal" transform="translate(-75.000000, -2010.000000)" fill="#EE3746" fill-rule="nonzero">
            <g id="TERCERO" transform="translate(0.000000, 1967.000000)">
                <g id="Group-8" transform="translate(55.000000, 25.000000)">
                    <g id="shield-(1)" transform="translate(20.000000, 18.000000)">
                        <path d="M29.7116761,9.54606026 L29.7106101,9.51887638 C29.6954191,9.18334244 29.6852918,8.82835347 29.6791621,8.43338816 C29.6506457,6.50733277 28.1195556,4.91414628 26.1932338,4.80647693 C22.1769539,4.58234341 19.0700003,3.27272173 16.4153112,0.685192817 L16.3926581,0.663605595 C15.5267727,-0.130322534 14.2206156,-0.130322534 13.3544636,0.663605595 L13.3318104,0.685192817 C10.6771214,3.27272173 7.57016781,4.58234341 3.55388799,4.80674342 C1.6278326,4.91414628 0.0964759649,6.50733277 0.0679596296,8.43365465 C0.0620964133,8.82595484 0.0517025731,9.18094388 0.0365116179,9.51887638 L0.0349126023,9.58203883 C-0.043174308,13.6774717 -0.140183392,18.7744427 1.56493665,23.4007599 C2.50251283,25.944848 3.92246897,28.1563337 5.78509535,29.9741868 C7.9065013,32.0444232 10.6851166,33.6879797 14.0436541,34.8590171 C14.1529224,34.8971278 14.266455,34.9280427 14.3821196,34.951229 C14.5452226,34.983743 14.7093917,35 14.8735608,35 C15.0377299,35 15.2021655,34.983743 15.3650021,34.951229 C15.4806667,34.9280427 15.5949988,34.8968613 15.7048002,34.8584841 C19.05934,33.6853146 21.8350237,32.0409585 23.9545642,29.9709886 C25.816391,28.1526027 27.2363471,25.9405839 28.1747229,23.3959628 C29.886239,18.755787 29.7894965,13.6492218 29.7116761,9.54606026 Z M26.2515991,22.6867843 C24.4532011,27.5628198 20.7820495,30.9114964 15.0284022,32.9236339 C15.007881,32.9305632 14.9860274,32.9366928 14.9633741,32.9412235 C14.9039428,32.9529499 14.8434454,32.9529499 14.7832146,32.940957 C14.7608278,32.9364263 14.7389742,32.9305632 14.7187195,32.9236339 C8.9589425,30.9152275 5.2853923,27.5684165 3.48832692,22.6921144 C1.91672758,18.4277153 2.00574138,13.7488959 2.08436128,9.62121557 L2.08489433,9.59829589 C2.10088482,9.24357334 2.11154516,8.87206076 2.1174083,8.46377014 C2.1302007,7.608545 2.81139588,6.90096556 3.66822003,6.85326056 C5.94100268,6.72640261 7.93768275,6.28719696 9.77232578,5.51059178 C11.6045703,4.73505271 13.2318698,3.64183569 14.7467029,2.16857789 C14.8237238,2.10354987 14.9236644,2.10328338 15.0004188,2.16857789 C16.5155184,3.64183569 18.142818,4.73505271 19.974796,5.51059178 C21.8094389,6.28719696 23.8061191,6.72640261 26.0791682,6.85326056 C26.9359924,6.90096556 27.6171875,7.608545 27.6297134,8.46403663 C27.6358431,8.87445939 27.6465034,9.2459719 27.6624939,9.59829589 C27.7408473,13.7307733 27.827729,18.4133239 26.2515991,22.6867843 Z" id="Shape"></path>
                        <path d="M14.8730279,8.82915294 C10.0726806,8.82915294 6.16753476,12.7345654 6.16753476,17.534646 C6.16753476,22.3349933 10.0726806,26.2404057 14.8730279,26.2404057 C19.6731085,26.2404057 23.578521,22.3349933 23.578521,17.534646 C23.578521,12.7345654 19.6731085,8.82915294 14.8730279,8.82915294 Z M14.8730279,24.190424 C11.2029423,24.190424 8.21724992,21.2047316 8.21724992,17.534646 C8.21724992,13.8645605 11.2029423,10.8788682 14.8730279,10.8788682 C18.5428469,10.8788682 21.5285392,13.8645605 21.5285392,17.534646 C21.5285392,21.2047316 18.5428469,24.190424 14.8730279,24.190424 Z" id="Shape"></path>
                        <path d="M17.3750076,14.8319855 L13.3315439,18.8754492 L12.2340628,17.7779682 C11.8337674,17.3776727 11.1848197,17.3776727 10.7845242,17.7779682 C10.3844953,18.1782636 10.3844953,18.8272113 10.7845242,19.2272402 L12.6069079,21.0496239 C12.8070556,21.2497716 13.0692998,21.3497122 13.3315439,21.3497122 C13.5937881,21.3497122 13.8560322,21.2497716 14.05618,21.0496239 L18.8245461,16.2812576 C19.2245751,15.8809622 19.2245751,15.2320145 18.8245461,14.8319855 C18.4242507,14.4314236 17.775303,14.4314236 17.3750076,14.8319855 Z" id="Path"></path>
                    </g>
                </g>
            </g>
        </g>
    </g>
</svg>